<?xml version="1.0" encoding="UTF-8"?>
<svg id="Layer_2" data-name="Layer 2" xmlns="http://www.w3.org/2000/svg" viewBox="0 0 1002 957.85">
  <defs>
    <style>
      .cls-1 {
        fill: #f1f2f2;
      }

      .cls-2 {
        fill: #e34546;
      }

      .cls-3 {
        fill: #2ebba8;
      }

      .cls-4 {
        fill: #3c7bbf;
      }

      .cls-5 {
        fill: #242424;
      }

      .cls-6 {
        fill: #e9b848;
      }
    </style>
  </defs>
  <g id="Layer_1" data-name="Layer 1">
    <g>
      <path class="cls-1" d="M471.61,9.55L20.61,337.22c-17.52,12.73-24.86,35.3-18.16,55.9l172.27,530.18c6.69,20.6,25.89,34.55,47.55,34.55h557.46c21.66,0,40.86-13.95,47.55-34.55l172.27-530.18c6.69-20.6-.64-43.17-18.16-55.9L530.39,9.55c-17.52-12.73-41.25-12.73-58.78,0Z"/>
      <g>
        <path class="cls-5" d="M661.43,775.58l98.21,135.16c3.21,4.41.05,10.6-5.4,10.6H247.06c-5.46,0-8.61-6.19-5.4-10.6l98.21-135.16c1.26-1.73,3.27-2.75,5.4-2.75h310.77c2.14,0,4.15,1.02,5.4,2.75Z"/>
        <path class="cls-4" d="M222.96,415.39l-159.94-51.97c-5.19-1.69-6.28-8.55-1.86-11.75L472.37,52.9c4.41-3.21,10.6-.05,10.6,5.4v168.18c0,2.14-1.02,4.14-2.75,5.4h0s-250.78,182.2-250.78,182.2l-.5.36c-1.73,1.26-3.96,1.61-5.99.95Z"/>
        <path class="cls-2" d="M312.4,748.4l.04.11c.66,2.03.31,4.26-.95,5.99l-98.63,135.75c-3.21,4.41-10.07,3.33-11.75-1.86L44.24,405.64c-1.69-5.19,3.23-10.1,8.42-8.42l159.6,51.85c2.03.66,3.63,2.26,4.29,4.29l.07.23,95.79,294.81Z"/>
        <path class="cls-6" d="M938.28,363.42l-159.45,51.81c-2.03.66-4.26.31-5.99-.95l-.28-.2-250.78-182.2-.7-.51c-1.73-1.26-2.75-3.27-2.75-5.4V58.3c0-5.46,6.19-8.61,10.6-5.4l411.22,298.77c4.41,3.21,3.33,10.07-1.86,11.75Z"/>
        <path class="cls-3" d="M957.05,405.64l-156.86,482.76c-1.69,5.19-8.55,6.28-11.75,1.86l-98.14-135.08c-1.26-1.73-1.61-3.96-.95-5.99l.26-.78,95.79-294.81.16-.48c.66-2.03,2.25-3.63,4.29-4.29l158.81-51.6c5.19-1.69,10.1,3.23,8.42,8.42Z"/>
        <path class="cls-5" d="M734.46,430.09c10.33,7.5,14.65,20.8,10.7,32.94l-.11.34-82.43,253.71v.05c-3.96,12.14-15.27,20.35-28.03,20.35h-267.18c-12.76,0-24.07-8.22-28.02-20.35l-.23-.72-82.13-252.78-.2-.6c-3.94-12.14.38-25.43,10.7-32.93l.21-.15,215.23-156.38.71-.51c10.33-7.5,24.31-7.5,34.63,0h0s215.72,156.74,215.72,156.74l.42.3Z"/>
        <path class="cls-1" d="M570.39,475.66v-18.48c0-40.68-32.04-73.78-71.42-73.78s-71.42,33.1-71.42,73.78v19.72c-8.45,3.43-13.8,11.43-13.8,21.74v135.06c0,13.88,9.69,23.57,23.57,23.57h9.52c13.88,0,23.57-9.69,23.57-23.57v-61.27l62.05,71.06c4.19,4.8,18.61,13.78,27.91,13.78h4.31c13.88,0,23.57-9.69,23.57-23.57v-135.06c0-11.88-7.1-20.68-17.85-22.98ZM498.97,406.97c26.38,0,47.85,22.52,47.85,50.21v19.19c-9.27,3.08-15.23,11.39-15.23,22.27v61.27l-62.05-71.06c-2.92-3.34-10.77-8.69-18.41-11.65v-20.02c0-27.68,21.47-50.21,47.85-50.21Z"/>
      </g>
    </g>
  </g>
</svg>