<?xml version="1.0" encoding="UTF-8"?>
<svg id="Layer_2" data-name="Layer 2" xmlns="http://www.w3.org/2000/svg" viewBox="0 0 1102.8 1102.8">
  <defs>
    <style>
      .cls-1 {
        fill: #fff;
      }

      .cls-2 {
        fill: #2ebba8;
      }

      .cls-3 {
        fill: #13385e;
      }
    </style>
  </defs>
  <g id="Layer_1" data-name="Layer 1">
    <g>
      <polygon class="cls-3" points="740.21 0 722.03 43.89 703.84 87.79 685.66 131.68 417.14 131.68 398.96 87.79 380.77 43.89 362.59 0 740.21 0"/>
      <path class="cls-3" d="M807.79,28l-18.18,43.89-18.18,43.9-18.18,43.89,189.87,189.87,43.89-18.18,43.91-18.18,43.88-18.18L807.79,28ZM905.09,249.45l-51.73-51.73,31.04-31.04,51.73,51.73-31.04,31.04Z"/>
      <g>
        <polygon class="cls-3" points="1102.8 362.59 1102.8 514.82 971.12 514.82 971.12 417.14 1015.01 398.96 1058.91 380.77 1102.8 362.59"/>
        <polygon class="cls-3" points="1102.8 587.98 1102.8 740.21 1058.91 722.03 1015.01 703.84 971.12 685.66 971.12 587.98 1102.8 587.98"/>
      </g>
      <polygon class="cls-3" points="1074.8 807.79 967.16 915.43 936.13 884.4 884.4 936.13 915.43 967.16 807.79 1074.8 789.61 1030.91 771.43 987.01 753.25 943.12 943.12 753.25 987.01 771.43 1030.92 789.61 1074.8 807.79"/>
      <polygon class="cls-3" points="349.55 943.12 331.37 987.01 313.19 1030.91 295.01 1074.8 28 807.79 71.88 789.61 115.79 771.43 159.68 753.25 228.75 822.32 197.72 853.36 166.68 884.4 218.41 936.13 249.45 905.09 280.48 874.05 349.55 943.12"/>
      <polygon class="cls-3" points="131.68 417.14 131.68 685.66 87.79 703.84 43.89 722.03 0 740.21 0 587.98 87.79 587.98 87.79 514.82 0 514.82 0 362.59 43.89 380.77 87.79 398.96 131.68 417.14"/>
      <polygon class="cls-3" points="349.55 159.68 280.48 228.75 249.45 197.72 197.72 249.45 228.75 280.48 159.68 349.55 115.79 331.37 71.89 313.19 71.88 313.19 27.99 295.01 295.01 27.99 313.19 71.89 331.37 115.79 349.55 159.68"/>
      <path class="cls-3" d="M886.86,362.91l-87.44,36.21c-23.99-39.07-56.66-71.75-95.75-95.75l36.23-87.44c61.42,34.6,112.38,85.56,146.97,146.98Z"/>
      <path class="cls-3" d="M399.13,303.37c-39.1,24.02-71.78,56.68-95.77,95.75l-87.44-36.21c34.6-61.42,85.56-112.38,146.98-146.98l36.23,87.44Z"/>
      <path class="cls-3" d="M655.34,180.88l-36.21,87.45c-22.12-5.29-44.82-7.95-67.72-7.95s-45.62,2.66-67.72,7.94l-36.21-87.44c33.06-9.26,67.92-14.21,103.94-14.21s70.88,4.95,103.94,14.21Z"/>
      <path class="cls-3" d="M936.13,551.4c0,36.02-4.95,70.88-14.21,103.94l-87.45-36.21c5.29-22.12,7.95-44.82,7.95-67.72s-2.66-45.62-7.95-67.72l87.45-36.21c9.26,33.06,14.21,67.92,14.21,103.94Z"/>
      <path class="cls-3" d="M551.4,936.13c-36.02,0-70.88-4.95-103.93-14.21l36.21-87.44c22.11,5.27,44.81,7.93,67.72,7.93s45.61-2.66,67.73-7.94l36.21,87.45c-33.06,9.26-67.92,14.21-103.94,14.21Z"/>
      <polygon class="cls-3" points="587.98 1102.8 587.98 1058.91 514.82 1058.91 514.82 1102.8 362.59 1102.8 380.77 1058.91 398.96 1015.01 417.14 971.12 514.82 971.12 514.82 1015.01 587.98 1015.01 587.98 971.12 685.66 971.12 703.84 1015.01 722.03 1058.91 740.21 1102.8 587.98 1102.8"/>
      <path class="cls-3" d="M886.86,739.89c-34.59,61.42-85.54,112.38-146.97,146.97l-36.21-87.44c39.07-23.99,71.75-56.67,95.74-95.74l87.44,36.21Z"/>
      <path class="cls-3" d="M399.12,799.42l-36.21,87.44c-61.42-34.59-112.38-85.54-146.97-146.97l87.43-36.21c23.99,39.07,56.67,71.75,95.75,95.74Z"/>
      <path class="cls-3" d="M260.39,551.4c0,22.89,2.66,45.59,7.94,67.72l-87.44,36.21c-9.26-33.06-14.21-67.92-14.21-103.94s4.95-70.88,14.21-103.94l87.44,36.21c-5.27,22.12-7.94,44.82-7.94,67.72Z"/>
      <path class="cls-2" d="M822.93,551.4c0-27.54-4.11-54.13-11.74-79.17l123.79-51.27c13.31-5.51,19.74-20.77,14.23-34.07-.07-.16-.13-.32-.2-.49-5.52-13.29-20.85-19.51-34.14-14.01l-123.8,51.28c-25.37-47.5-64.44-86.57-111.94-111.95l51.28-123.79c5.51-13.3-.72-28.62-14.01-34.14-.16-.07-.32-.13-.49-.2-13.31-5.51-28.56.92-34.07,14.23l-51.27,123.79c-25.06-7.63-51.63-11.74-79.17-11.74s-54.12,4.11-79.16,11.74l-51.28-123.79c-5.51-13.31-20.77-19.74-34.07-14.23-.16.07-.32.13-.49.2-13.29,5.52-19.52,20.85-14.01,34.15l51.28,123.79c-47.5,25.38-86.58,64.45-111.95,111.95l-123.8-51.28c-13.29-5.51-28.61.71-34.13,14-.07.16-.13.32-.2.49-5.51,13.3.92,28.56,14.22,34.07l123.78,51.28c-7.61,25.04-11.73,51.63-11.73,79.17s4.12,54.11,11.73,79.16l-123.79,51.28c-13.3,5.51-19.73,20.76-14.22,34.06.07.16.13.32.2.49,5.52,13.29,20.84,19.51,34.13,14l123.81-51.28c25.37,47.5,64.45,86.58,111.95,111.94l-51.28,123.8c-5.51,13.3.72,28.62,14.01,34.15.16.07.32.13.49.2,13.31,5.51,28.56-.92,34.08-14.23l51.28-123.79c25.04,7.63,51.63,11.75,79.16,11.75s54.11-4.12,79.17-11.75l51.27,123.79c5.51,13.31,20.77,19.74,34.08,14.23.16-.07.32-.13.49-.2,13.29-5.52,19.51-20.85,14.01-34.14l-51.28-123.8c47.5-25.36,86.57-64.44,111.94-111.94l123.81,51.28c13.3,5.51,28.62-.72,34.14-14.01.07-.16.13-.32.2-.49,5.51-13.31-.92-28.56-14.23-34.07l-123.79-51.27c7.63-25.05,11.74-51.63,11.74-79.16ZM717.06,678.94c-38.22,49.58-98.2,81.54-165.66,81.54-115.47,0-209.08-93.61-209.08-209.08s93.61-209.08,209.08-209.08c64.12,0,121.48,28.87,159.83,74.31,30.72,36.39,49.24,83.41,49.24,134.77,0,48.01-16.19,92.24-43.41,127.54Z"/>
      <g>
        <g>
          <circle class="cls-3" cx="551.4" cy="456.57" r="33.19"/>
          <path class="cls-3" d="M552.63,361.76c51.8.65,93.6,42.85,93.6,94.82s-42.45,94.83-94.83,94.83-94.83,42.45-94.83,94.83,41.79,94.16,93.6,94.82c.41,0,.82,0,1.23,0s.82,0,1.23,0c104.18-.65,188.42-85.31,188.42-189.64s-84.25-188.99-188.42-189.64ZM551.4,679.42c-18.33,0-33.19-14.86-33.19-33.19s14.86-33.19,33.19-33.19,33.19,14.86,33.19,33.19-14.86,33.19-33.19,33.19Z"/>
        </g>
        <g>
          <path class="cls-1" d="M552.63,361.76c-.41,0-.82,0-1.23,0s-.82,0-1.23,0c-104.18.65-188.42,85.31-188.42,189.64s84.25,188.99,188.42,189.64c-51.8-.65-93.6-42.85-93.6-94.82s42.45-94.83,94.83-94.83,94.83-42.45,94.83-94.83-41.79-94.16-93.6-94.82ZM551.4,489.76c-18.33,0-33.19-14.86-33.19-33.19s14.86-33.19,33.19-33.19,33.19,14.86,33.19,33.19-14.86,33.19-33.19,33.19Z"/>
          <circle class="cls-1" cx="551.4" cy="646.23" r="33.19"/>
        </g>
      </g>
    </g>
  </g>
</svg>